<svg xmlns="http://www.w3.org/2000/svg" xmlns:xlink="http://www.w3.org/1999/xlink" viewBox="0 0 1100 708.5">
<defs><style>.cls-1{fill:none;stroke:#000;stroke-miterlimit:10;stroke-width:6px;}.cls-2{fill:#231f20;}.cls-3{fill:#bfb1d5;}.cls-3,.cls-4,.cls-5,.cls-6,.cls-7{opacity:0.75;}.cls-4{fill:#777;}.cls-5{fill:#fed1be;}.cls-6{fill:#f0e0a2;}.cls-7{fill:#adddcf;}.cls-8{fill:#4c495a;}.cls-9{fill:#eaeaea;}.cls-10{fill:#f7931e;}.cls-11{fill:#fed88f;}.cls-12{fill:#8bacbd;}.cls-13{fill:#51a1c4;}.cls-14{fill:#95b69b;}.cls-15{fill:#ff9681;}.cls-16{fill:#211c17;}.cls-17{fill:#41372e;}.cls-18{fill:#100e0c;}.cls-19{fill:#3f3838;}.cls-20{fill:#5e5555;}.cls-21{fill:#d6d6d6;}</style></defs><title>desk</title><g id="Lamp"><path class="cls-1" d="M1134.08,290c18.7,20.52,44.94,69.59,10.49,187.46" transform="translate(-133 -58.5)"/><polygon id="Lamp_Top" data-name="Lamp Top" class="cls-2" points="974.17 282.15 914.35 233.67 976.04 184.55 1011 212.89 974.17 282.15"/><rect x="945" y="419" width="108.5" height="19"/></g><g id="Books"><path class="cls-3" d="M753,417.5h98a0,0,0,0,1,0,0v21a0,0,0,0,1,0,0H753a10,10,0,0,1-10-10v-1A10,10,0,0,1,753,417.5Z"/><path class="cls-4" d="M890,463.75H992a0,0,0,0,1,0,0v12a0,0,0,0,1,0,0H890a6,6,0,0,1-6-6v0A6,6,0,0,1,890,463.75Z" transform="translate(1743 881) rotate(180)"/><path class="cls-5" d="M744,393H846a0,0,0,0,1,0,0v12a0,0,0,0,1,0,0H744a6,6,0,0,1-6-6v0A6,6,0,0,1,744,393Z"/><path class="cls-6" d="M904,433.25h102a0,0,0,0,1,0,0v18a0,0,0,0,1,0,0H904a6,6,0,0,1-6-6v-6a6,6,0,0,1,6-6Z" transform="translate(1771 826) rotate(-180)"/><path class="cls-7" d="M760,362.5H862a0,0,0,0,1,0,0v12a0,0,0,0,1,0,0H760a6,6,0,0,1-6-6v0A6,6,0,0,1,760,362.5Z"/></g><g id="PC"><rect x="66" width="592" height="363" rx="14" ry="14"/><rect id="Screen" class="cls-8" x="333.5" y="-36" width="323" height="552" transform="translate(602 -313.5) rotate(90)"/><polyline points="396.1 363 396.1 424.46 452 424.46 452 438.5 272 438.5 272 424.46 327.9 424.46 327.9 363"/><g id="Code"><rect class="cls-9" x="100" y="35.5" width="522" height="8" rx="4" ry="4"/><rect class="cls-10" x="100" y="55.86" width="300" height="8" rx="4" ry="4"/><rect class="cls-10" x="100" y="116.93" width="300" height="8" rx="4" ry="4"/><rect class="cls-9" x="100" y="76.21" width="200" height="8" rx="4" ry="4"/><rect class="cls-11" x="100" y="96.57" width="100" height="8" rx="4" ry="4"/><rect class="cls-9" x="100" y="137.29" width="400" height="8" rx="4" ry="4"/><rect class="cls-12" x="100" y="177.75" width="50" height="8" rx="4" ry="4"/><rect class="cls-12" x="312" y="75.5" width="50" height="8" rx="4" ry="4"/><rect class="cls-10" x="380" y="177.5" width="50" height="8" rx="4" ry="4"/><rect class="cls-13" x="101" y="218.5" width="50" height="8" rx="4" ry="4"/><rect class="cls-10" x="462" y="259.5" width="50" height="8" rx="4" ry="4"/><rect class="cls-12" x="412" y="299.5" width="50" height="8" rx="4" ry="4"/><rect class="cls-14" x="212" y="96.5" width="50" height="8" rx="4" ry="4"/><rect class="cls-9" x="100" y="198.36" width="250" height="8" rx="4" ry="4"/><rect class="cls-14" x="161" y="218.71" width="400" height="8" rx="4" ry="4"/><rect class="cls-10" x="100" y="239.07" width="200" height="8" rx="4" ry="4"/><rect class="cls-15" x="100" y="259.43" width="350" height="8" rx="4" ry="4"/><rect class="cls-11" x="205" y="157.5" width="350" height="8" rx="4" ry="4"/><rect class="cls-11" x="100" y="279.79" width="200" height="8" rx="4" ry="4"/><rect class="cls-15" x="168" y="177.75" width="200" height="8" rx="4" ry="4"/><rect class="cls-15" x="312" y="238.5" width="200" height="8" rx="4" ry="4"/><rect class="cls-9" x="201" y="299.5" width="200" height="8" rx="4" ry="4"/><rect class="cls-10" x="100" y="300.14" width="90" height="8" rx="4" ry="4"/><rect class="cls-10" x="100" y="157.5" width="90" height="8" rx="4" ry="4"/><rect class="cls-15" x="273" y="96.5" width="90" height="8" rx="4" ry="4"/><rect class="cls-14" x="100" y="320.5" width="330" height="8" rx="4" ry="4"/></g></g><g id="Desk"><polyline class="cls-16" points="78.5 489 78.5 708.5 47.5 708.5 47.5 489"/><polyline class="cls-16" points="1053.14 489 1053.14 708.5 1016.83 708.5 1016.83 489"/><polyline class="cls-17" points="22.84 469 22.84 489 47.5 489 78.5 489 1016.83 489 1053.14 489 1077.16 489 1077.16 469"/><rect class="cls-18" y="438" width="1100" height="31"/><rect class="cls-19" x="78" y="488.5" width="939" height="150"/><a target="_blank" xlink:href="https://github.com/NuriAmari"><rect class="cls-20" x="97" y="503.26" width="165" height="115"/><path class="cls-21" d="M297.77,642.84c0,.31-.36.56-.81.56s-.87-.2-.87-.56.36-.55.81-.55S297.77,642.49,297.77,642.84Zm-4.83-.69c-.1.31.21.66.67.76s.87,0,1-.31-.2-.67-.66-.81a.8.8,0,0,0-1,.36Zm6.86-.27c-.45.11-.76.41-.71.76s.45.51.91.41.76-.41.71-.72S300.25,641.84,299.8,641.88ZM310,582.45c-21.51,0-38,16.33-38,37.84a38.88,38.88,0,0,0,26.29,37.1c2,.36,2.68-.87,2.68-1.88S301,649.25,301,646c0,0-10.85,2.33-13.13-4.62,0,0-1.77-4.51-4.31-5.68,0,0-3.56-2.43.24-2.38a8.18,8.18,0,0,1,6,4c3.4,6,9.09,4.26,11.31,3.24a8.6,8.6,0,0,1,2.48-5.23c-8.67-1-17.42-2.22-17.42-17.13,0-4.27,1.18-6.41,3.66-9.14a14.69,14.69,0,0,1,.4-10.53c3.25-1,10.7,4.19,10.7,4.19a36.59,36.59,0,0,1,19.48,0s7.46-5.21,10.7-4.19a14.65,14.65,0,0,1,.41,10.53c2.48,2.75,4,4.89,4,9.14,0,15-9.14,16.16-17.81,17.13,1.43,1.23,2.64,3.55,2.64,7.2,0,5.22-.05,11.69-.05,13,0,1,.72,2.24,2.69,1.88,15.51-5.15,26-19.87,26-37.07C349,598.78,331.51,582.45,310,582.45Zm-22.89,53.49c-.2.16-.15.51.11.81s.61.36.81.15.15-.51-.11-.8S287.31,635.74,287.11,635.94Zm-1.67-1.25c-.11.2,0,.45.36.6a.45.45,0,0,0,.66-.11c.11-.2,0-.45-.35-.6S285.55,634.53,285.44,634.69Zm5,5.52c-.25.2-.15.66.2,1s.81.4,1,.15.11-.66-.2-1S290.66,640,290.46,640.21Zm-1.76-2.28c-.25.15-.25.56,0,.91s.66.51.86.36a.7.7,0,0,0,0-1c-.21-.36-.62-.51-.86-.31Z" transform="translate(-133 -58.5)"/></a><a target="_blank" href="mailto:nfamari@edu.uwaterloo.ca"><rect id="email_drawer" class="cls-20" x="281.5" y="503.26" width="165" height="115"/><path class="cls-21" d="M539.9,609.87a1.1,1.1,0,0,1,1.77.86V648a8.75,8.75,0,0,1-8.75,8.75H457.08a8.75,8.75,0,0,1-8.75-8.75V610.75a1.09,1.09,0,0,1,1.77-.86c4.08,3.17,9.5,7.2,28.09,20.71,3.85,2.81,10.34,8.71,16.81,8.68s13.13-6,16.83-8.68C530.42,617.09,535.82,613.05,539.9,609.87ZM495,633.43c4.23.07,10.32-5.33,13.38-7.55,24.19-17.55,26-19.09,31.61-23.46a4.36,4.36,0,0,0,1.68-3.45v-3.46a8.75,8.75,0,0,0-8.75-8.75H457.08a8.75,8.75,0,0,0-8.75,8.75V599a4.39,4.39,0,0,0,1.68,3.45c5.58,4.36,7.42,5.91,31.61,23.46,3.06,2.22,9.15,7.62,13.38,7.55Z" transform="translate(-133 -58.5)"/></a><a target="_blank" xlink:href="https://www.linkedin.com/in/nuri-amari-a22b21144/"><rect id="linkedin_drawer" class="cls-20" x="466" y="503.26" width="165" height="115"/><path class="cls-21" d="M707,586.76H647a5,5,0,0,0-5,5v59.9a5,5,0,0,0,5,5h60a5,5,0,0,0,5-5v-59.9A5,5,0,0,0,707,586.76Zm-43.84,60H652.78V613.35h10.39v33.41Zm-5.19-38a6,6,0,1,1,6-6A6,6,0,0,1,658,608.79Zm44.08,38H691.67V630.51c0-3.87-.08-8.86-5.39-8.86s-6.23,4.22-6.23,8.58v16.53H669.67V613.35h10v4.57h.14a10.91,10.91,0,0,1,9.82-5.39c10.5,0,12.46,6.92,12.46,15.92Z" transform="translate(-133 -58.5)"/></a><a download href="" target="_blank"><rect id="resume_drawer" class="cls-20" x="650.5" y="503.26" width="165" height="115"/><path class="cls-21" d="M867.69,604.18V584.26h-29.3a3.5,3.5,0,0,0-3.51,3.52v68a3.5,3.5,0,0,0,3.51,3.52h49.22a3.5,3.5,0,0,0,3.51-3.52v-48H871.2A3.52,3.52,0,0,1,867.69,604.18Zm9.37,34.57a1.76,1.76,0,0,1-1.76,1.76H850.7a1.76,1.76,0,0,1-1.76-1.76v-1.17a1.76,1.76,0,0,1,1.76-1.76h24.6a1.76,1.76,0,0,1,1.76,1.76Zm0-9.37a1.77,1.77,0,0,1-1.76,1.76H850.7a1.77,1.77,0,0,1-1.76-1.76v-1.17a1.76,1.76,0,0,1,1.76-1.76h24.6a1.76,1.76,0,0,1,1.76,1.76Zm0-10.55V620a1.76,1.76,0,0,1-1.76,1.76H850.7a1.76,1.76,0,0,1-1.76-1.76v-1.17a1.76,1.76,0,0,1,1.76-1.76h24.6A1.76,1.76,0,0,1,877.06,618.83Zm14.06-16.71V603H872.38V584.26h.89a3.51,3.51,0,0,1,2.49,1l14.34,14.35A3.5,3.5,0,0,1,891.12,602.12Z" transform="translate(-133 -58.5)"/></a><a href="tel:6133051225" target="_blank"><rect id="resume_drawer-2" data-name="resume_drawer" class="cls-20" x="835" y="503.26" width="165" height="115"/><path class="cls-21" d="M1085.28,585.36,1070,581.85a3.54,3.54,0,0,0-4,2l-7,16.4a3.52,3.52,0,0,0,1,4.1l8.88,7.27a54.26,54.26,0,0,1-26,26l-7.26-8.87a3.5,3.5,0,0,0-4.1-1l-16.41,7a3.56,3.56,0,0,0-2,4L1016.6,654a3.52,3.52,0,0,0,3.43,2.72,68,68,0,0,0,68-68A3.52,3.52,0,0,0,1085.28,585.36Z" transform="translate(-133 -58.5)"/><a/></g></svg>